<svg width="17" height="14" viewBox="0 0 17 14" fill="none" xmlns="http://www.w3.org/2000/svg">
<path d="M8.114 0C12.1581 0 15.5226 2.90982 16.2279 6.75C15.5226 10.5901 12.1581 13.5 8.114 13.5C4.06986 13.5 0.705382 10.5901 0 6.75C0.705382 2.90982 4.06986 0 8.114 0ZM8.114 12C11.2907 12 14.009 9.789 14.697 6.75C14.009 3.71102 11.2907 1.5 8.114 1.5C4.93722 1.5 2.21894 3.71102 1.53086 6.75C2.21894 9.789 4.93722 12 8.114 12ZM8.114 10.125C6.25001 10.125 4.73897 8.61398 4.73897 6.75C4.73897 4.88604 6.25001 3.375 8.114 3.375C9.9779 3.375 11.489 4.88604 11.489 6.75C11.489 8.61398 9.9779 10.125 8.114 10.125ZM8.114 8.625C9.14952 8.625 9.989 7.78552 9.989 6.75C9.989 5.71448 9.14952 4.875 8.114 4.875C7.07847 4.875 6.23897 5.71448 6.23897 6.75C6.23897 7.78552 7.07847 8.625 8.114 8.625Z" fill="#9CA3AF"/>
</svg>
