<svg width="15" height="15" viewBox="0 0 15 15" fill="none" xmlns="http://www.w3.org/2000/svg">
<path d="M7.5 0C11.644 0 15 3.356 15 7.5C15 9.07166 14.5068 10.6037 13.5901 11.8803C12.6734 13.1569 11.3792 14.1137 9.89 14.616C9.516 14.691 9.375 14.456 9.375 14.259C9.375 14.006 9.385 13.2 9.385 12.197C9.385 11.494 9.15 11.044 8.878 10.809C10.547 10.622 12.3 9.984 12.3 7.106C12.3 6.281 12.01 5.616 11.531 5.091C11.606 4.903 11.869 4.134 11.456 3.103C11.456 3.103 10.828 2.897 9.394 3.872C8.78333 3.7032 8.15257 3.61809 7.519 3.619C6.88543 3.61809 6.25467 3.7032 5.644 3.872C4.209 2.906 3.581 3.103 3.581 3.103C3.169 4.134 3.431 4.903 3.506 5.091C3.00192 5.63992 2.7268 6.36081 2.737 7.106C2.737 9.975 4.481 10.622 6.15 10.809C5.934 10.997 5.737 11.325 5.672 11.812C5.241 12.009 4.162 12.328 3.488 11.194C3.347 10.969 2.925 10.416 2.334 10.425C1.706 10.435 2.081 10.781 2.344 10.922C2.662 11.1 3.028 11.766 3.112 11.982C3.262 12.403 3.75 13.209 5.634 12.862C5.634 13.491 5.644 14.082 5.644 14.259C5.644 14.456 5.504 14.681 5.128 14.616C3.63457 14.1181 2.33567 13.1629 1.41531 11.8858C0.494949 10.6086 -0.000204063 9.07423 6.30875e-08 7.5C6.30875e-08 3.356 3.356 0 7.5 0Z" fill="#9CA3AF"/>
</svg>
