<svg width="17" height="13" viewBox="0 0 17 13" fill="none" xmlns="http://www.w3.org/2000/svg">
<path d="M13.9771 1.053C12.8935 0.554236 11.749 0.200199 10.5731 0C10.4131 0.29 10.2677 0.587 10.1371 0.891C8.88489 0.701127 7.61125 0.701127 6.35907 0.891C6.22853 0.58731 6.08302 0.290278 5.92307 0.000999928C4.74628 0.202705 3.60091 0.557377 2.51607 1.056C0.362069 4.26 -0.221931 7.385 0.0700687 10.465C1.33069 11.4014 2.74293 12.1141 4.24507 12.572C4.58374 12.114 4.88174 11.6307 5.13907 11.122C4.65107 10.9382 4.17996 10.7124 3.73107 10.447C3.84974 10.3603 3.96474 10.2733 4.07607 10.186C5.38095 10.8034 6.80652 11.1236 8.25007 11.1236C9.69362 11.1236 11.1192 10.8034 12.4241 10.186C12.5374 10.2793 12.6524 10.366 12.7691 10.446C12.3177 10.7133 11.8477 10.9393 11.3591 11.124C11.6157 11.632 11.9134 12.1147 12.2521 12.572C13.7559 12.1166 15.1695 11.4041 16.4301 10.466C16.7731 6.894 15.8451 3.798 13.9771 1.053ZM5.51007 8.571C4.69607 8.571 4.02407 7.828 4.02407 6.915C4.02407 6.002 4.67307 5.253 5.50707 5.253C6.34107 5.253 7.00907 6.002 6.99507 6.915C6.98107 7.828 6.33907 8.571 5.51007 8.571ZM10.9921 8.571C10.1771 8.571 9.50707 7.828 9.50707 6.915C9.50707 6.002 10.1571 5.253 10.9921 5.253C11.8271 5.253 12.4901 6.002 12.4751 6.915C12.4601 7.828 11.8211 8.571 10.9921 8.571Z" fill="#9CA3AF"/>
</svg>
