<svg width="20" height="20" viewBox="0 0 20 20" fill="none" xmlns="http://www.w3.org/2000/svg">
<path d="M9.4375 2.31256C13.3726 2.31256 16.5634 5.50197 16.5635 9.43658C16.5635 11.1343 15.9681 12.6922 14.9766 13.9161L17.4688 16.4083C17.7609 16.7012 17.7604 17.1762 17.4678 17.4688C17.175 17.7613 16.7 17.7613 16.4072 17.4688L13.915 14.9756C12.6911 15.9657 11.1343 16.5606 9.4375 16.5606C5.50258 16.5604 2.3125 13.3711 2.3125 9.43658C2.31258 5.50211 5.50263 2.31279 9.4375 2.31256ZM9.4375 3.81256C6.33077 3.81279 3.81258 6.33082 3.8125 9.43658C3.8125 12.5424 6.33072 15.0604 9.4375 15.0606C12.5445 15.0606 15.0635 12.5426 15.0635 9.43658C15.0634 6.33068 12.5444 3.81256 9.4375 3.81256Z" fill="#9CA3AF"/>
</svg>
