<svg width="20" height="20" viewBox="0 0 20 20" fill="none" xmlns="http://www.w3.org/2000/svg">
<path fill-rule="evenodd" clip-rule="evenodd" d="M14.9037 14.9045C14.6108 15.1974 14.1359 15.1973 13.843 14.9045L9.99919 11.0606L6.15533 14.9045C5.86244 15.1974 5.38756 15.1974 5.09467 14.9045C4.80178 14.6116 4.80178 14.1367 5.09467 13.8438L8.93853 9.99998L5.09467 6.15612C4.80178 5.86323 4.80178 5.38836 5.09467 5.09546C5.38756 4.80257 5.86244 4.80257 6.15533 5.09546L9.99919 8.93932L13.843 5.09546C14.1359 4.80268 14.6108 4.8026 14.9037 5.09546C15.1966 5.38832 15.1965 5.86322 14.9037 6.15612L11.0598 9.99998L14.9037 13.8438C15.1965 14.1367 15.1966 14.6116 14.9037 14.9045Z" fill="#9CA3AF"/>
</svg>
